<svg width="118" height="96" viewBox="0 0 118 96" fill="none" xmlns="http://www.w3.org/2000/svg">
<path d="M5.18846 95.9742C22.188 89.8759 34.5981 70.7053 34.5981 48C34.5981 25.2946 22.188 6.1241 5.18846 0.0258484C30.9619 0.864875 51.5981 22.0225 51.5981 48C51.5981 73.9775 30.9619 95.1351 5.18846 95.9742Z"/>
<path d="M0 65.6839C62.1802 82.5672 114.409 88.7345 116.949 79.4427C118.872 72.4058 91.7492 58.5064 51.488 44.7505C51.6376 46.9545 51.6353 49.1716 51.4787 51.3858C74.2058 59.6275 88.7032 67.1362 87.677 70.8909C86.2722 76.0302 56.2494 72.4311 17.6535 62.9377L0 65.6839Z"/>
<path d="M65.5981 64.5C65.5981 66.433 64.0311 68 62.0981 68C60.1651 68 58.5981 66.433 58.5981 64.5C58.5981 62.567 60.1651 61 62.0981 61C64.0311 61 65.5981 62.567 65.5981 64.5Z"/>
<path d="M99.5274 16.3406C100.372 15.9499 101.246 16.8235 100.855 17.668L97.5447 24.8235C97.4215 25.0898 97.4215 25.3969 97.5447 25.6632L100.855 32.8187C101.246 33.6632 100.372 34.5368 99.5274 34.1461L92.3719 30.836C92.1056 30.7128 91.7986 30.7128 91.5322 30.836L84.3768 34.1461C83.5322 34.5368 82.6586 33.6632 83.0493 32.8187L86.3594 25.6632C86.4827 25.3969 86.4827 25.0898 86.3594 24.8235L83.0493 17.668C82.6586 16.8235 83.5322 15.9499 84.3768 16.3406L91.5322 19.6507C91.7986 19.7739 92.1056 19.7739 92.3719 19.6507L99.5274 16.3406Z"/>
<path d="M91.5981 0L94.7801 21.818L116.598 25L94.7801 28.182L91.5981 50L88.4161 28.182L66.5981 25L88.4161 21.818L91.5981 0Z"/>
</svg>
